<svg xmlns="http://www.w3.org/2000/svg" viewBox="0 0 256 256" role="img" aria-label="Sun">
  <title>Sun</title>
  <!-- Geometry follows Wonder's existing app icon: five rays and a rising half sun. -->
  <g data-part="rays" fill="none" stroke="var(--avatar-body, #FFB51C)" stroke-width="13.2" stroke-linecap="round">
    <path d="M128 69.2V89.2M63 96.5L75 108.8M181 108.8L193 96.5M29.8 162.4H46.8M209.2 162.4H226.2"/>
  </g>
  <g data-part="body">
    <path fill="var(--avatar-body, #FFB51C)" d="M62.3 179.7V171.6a65.7 65.7 0 0 1 131.4 0v8.1a6.8 6.8 0 0 1-6.8 6.8H69.1a6.8 6.8 0 0 1-6.8-6.8Z"/>
    <path fill="var(--avatar-shadow, #FF8B20)" d="M62.3 171.5c36 11 88 10 131.4-5v13.2a6.8 6.8 0 0 1-6.8 6.8H69.1a6.8 6.8 0 0 1-6.8-6.8Z"/>
  </g>
  <g data-part="face" fill="var(--avatar-ink, #3B2709)">
    <rect x="96.5" y="142.8" width="11.2" height="19.7" rx="5.6"/>
    <rect x="148.4" y="142.8" width="11.2" height="19.7" rx="5.6"/>
    <path d="M121.5 165.4q6.5 6.7 13 0" fill="none" stroke="var(--avatar-ink, #3B2709)" stroke-width="5.5" stroke-linecap="round"/>
  </g>
</svg>
